<?xml version="1.0" encoding="UTF-8" standalone="no"?>
<!-- Generator: Adobe Illustrator 16.0.0, SVG Export Plug-In . SVG Version: 6.00 Build 0)  -->

<svg
   version="1.1"
   id="Layer_1"
   x="0px"
   y="0px"
   width="360px"
   height="360px"
   viewBox="0 0 360 360"
   enable-background="new 0 0 360 360"
   xml:space="preserve"
   xmlns="http://www.w3.org/2000/svg"
   xmlns:svg="http://www.w3.org/2000/svg"><defs
   id="defs4" />
<g
   id="g4"
   style="fill:#ffcc00">
	<path
   d="M93.019,245.229c-7.937,8.926-20.17,18.184-30.75,26.121c0,0,0.991,21.162,2.644,23.145   c1.653,2.314,15.21,5.951,20.169,1.324c5.29-4.631,0-12.895-4.628-13.559c0,0-3.637-9.258-0.659-14.217   c2.972-4.631,16.198-7.936,21.491-12.895c5.29-5.291,7.273-18.188,7.273-18.188S100.955,236.301,93.019,245.229z"
   id="path1"
   style="fill:#ffcc00" />
	<path
   d="M249.418,284.576l0.659-45.961l-10.58,12.234v41.332c0,0,12.233,0,13.227,9.59c0,0,14.217-2.977,6.943-13.227   C259.667,288.875,254.376,284.576,249.418,284.576z"
   id="path2"
   style="fill:#ffcc00" />
	<path
   d="M341.007,98.086c-0.66-1.322-1.653-1.984-3.307-1.984c-0.331,0-0.662,0-0.993,0c-1.65,0.331-2.975,3.971-2.975,4.63   c0.662,3.306,1.324,5.621,3.637,5.621c0.663,0,1.653-0.331,2.646-0.662C342.993,104.37,342,100.733,341.007,98.086z"
   id="path3"
   style="fill:#ffcc00" />
	<path
   d="M329.764,101.396c-0.331-1.653,0.663-4.631,2.315-6.943c-2.646-1.322-5.621-2.646-8.265-3.637   c-6.945-2.646-7.605-2.646-13.889-12.567c-6.28-9.589-33.396-13.224-44.307-11.902c-11.243,1.322-23.476,20.167-23.476,20.167   c-15.873,17.526-26.453,25.134-38.357,39.02c-11.902,13.889-40.998,13.226-40.998,13.226   c-48.606,2.644-82.665,12.564-82.665,12.564c-12.564-38.686-2.975-63.817-2.975-73.406c0-9.59,1.984-35.38-6.284-34.718   c-8.268,0.662-10.58,17.526-13.227,55.549c-2.646,38.357,4.959,62.495,4.959,62.495s-14.548,11.902-15.208,46.619   c-0.663,34.721-20.832,44.971-26.453,49.928c-5.621,4.963-1.322,28.438-1.984,43.648c-0.663,15.211,16.532,15.869,23.478,15.211   c6.943-0.662,8.927-4.963,6.281-11.242c-1.653-3.969-10.58-4.963-10.58-4.963s-1.325-16.859,0-20.166   c2.644-7.607,9.586-11.244,13.886-11.904c4.299-0.662,11.902-6.283,11.902-6.283c27.115-23.477,36.705-41.664,57.533-28.436   c20.832,13.225,33.399,6.281,44.311,8.928c11.239,2.645,36.042,0,36.042,0l1.321-22.816c5.622,17.523,6.281,52.244,8.268,61.834   c1.981,9.586,4.297,2.643,4.956,20.17c0.663,17.521,17.526,14.547,22.819,14.547c1.981,0,3.634-0.662,5.287-1.652   c4.299-2.646,5.621-8.6,2.646-12.564c-2.978-3.969-7.274-3.307-7.274-3.307s-6.283,0.66-6.283-4.301c0-4.957-0.659-27.113,0-32.072   c0.662-4.961,0-15.211,0-23.479c0-8.264,3.637-20.168,3.637-20.168c-0.659,7.605,1.325,22.156,1.325,22.156l6.942-6.943   c15.211-19.842,17.523-43.318,17.854-51.252c0-1.984,0.331-3.969,0.993-5.954l0.331-9.917l-9.589-4.3   c-7.937-1.984-14.22-8.93-17.857-13.886c-2.644-3.64-3.968-8.268-3.637-12.898c1.984-21.822,12.235-41.661,12.235-41.661   s-11.242,40.999-4.299,52.244c4.63,7.603,17.194,11.574,27.443,12.233c4.299,0.331,7.937-2.315,8.927-6.612   c2.975-12.236,4.3-16.204,3.306-24.469c-1.321-11.242-10.58-37.364-10.58-37.364s8.269,16.533,13.227,27.113   c4.959,10.583,4.959,18.185,4.959,18.185s12.567,8.268,19.51,0.663c0.329-0.332,0.66-0.663,0.991-1.322   c4.962,0.99,12.566,0.99,18.848-2.978c5.621-1.65,10.58-13.224,11.242-22.153c-0.99,0.331-2.315,0.662-3.306,0.662   C331.42,110.654,330.427,104.37,329.764,101.396z M305.626,95.774c-2.975-0.663-10.579-1.653-7.273-5.622   c1.984-2.646,5.293-3.309,7.605-3.64c0.993,0,1.983,0.662,1.983,1.656C307.941,91.144,307.941,96.103,305.626,95.774z"
   id="path4"
   style="fill:#ffcc00" />
</g>
</svg>
